<svg width="40" height="40" viewBox="0 0 40 40" fill="none" xmlns="http://www.w3.org/2000/svg">
<path d="M29.3333 9.33325H10.6667C9.19391 9.33325 8 10.5272 8 11.9999V30.6666C8 32.1393 9.19391 33.3333 10.6667 33.3333H29.3333C30.8061 33.3333 32 32.1393 32 30.6666V11.9999C32 10.5272 30.8061 9.33325 29.3333 9.33325Z" stroke="black" stroke-width="2" stroke-linecap="round" stroke-linejoin="round"/>
<path d="M25.3333 6.66675C26.6123 8.81552 26.6195 9.99868 25.3333 12.0001" stroke="black" stroke-width="2" stroke-linecap="round" stroke-linejoin="round"/>
<path d="M8 17.3333H32" stroke="black" stroke-width="2" stroke-linecap="round" stroke-linejoin="round"/>
<path d="M14.6667 6.66675C16.1637 8.81716 16.2058 9.99 14.6667 12.0001" stroke="black" stroke-width="2" stroke-linecap="round" stroke-linejoin="round"/>
<path d="M24 24C24 27 20 30 20 30C20 30 16 27 16 24C16 22.9391 16.4214 21.9217 17.1716 21.1716C17.9217 20.4214 18.9391 20 20 20C21.0609 20 22.0783 20.4214 22.8284 21.1716C23.5786 21.9217 24 22.9391 24 24Z" stroke="black" stroke-width="1.5" stroke-linecap="round" stroke-linejoin="round"/>
<path d="M20 25.5C20.8284 25.5 21.5 24.8284 21.5 24C21.5 23.1716 20.8284 22.5 20 22.5C19.1716 22.5 18.5 23.1716 18.5 24C18.5 24.8284 19.1716 25.5 20 25.5Z" stroke="black" stroke-width="1.5" stroke-linecap="round" stroke-linejoin="round"/>
</svg>
