<svg width="300" height="300" viewBox="0 0 300 300" fill="none" xmlns="http://www.w3.org/2000/svg">
<g clip-path="url(#clip0_63_3350)">
<path d="M162.5 262C227.393 262 280 209.393 280 144.5C280 79.6065 227.393 27 162.5 27C97.6065 27 44.9999 79.6065 44.9999 144.5C44.9999 209.393 97.6065 262 162.5 262Z" fill="url(#paint0_linear_63_3350)"/>
<path d="M226.072 33H98.8488C94.115 33 89.5751 35.0106 86.2278 38.5895C82.8804 42.1683 80.9999 47.0223 80.9999 52.0836V207.085H81.2181V261.515C81.2179 263.617 81.7215 265.684 82.6808 267.518C83.6401 269.352 85.0231 270.893 86.6977 271.994C88.3724 273.094 90.2829 273.718 92.247 273.804C94.211 273.891 96.163 273.438 97.9167 272.488L156.6 240.682C158.199 239.825 159.963 239.379 161.751 239.379C163.54 239.379 165.304 239.825 166.903 240.682L227.391 272.722C229.145 273.651 231.093 274.086 233.05 273.986C235.006 273.885 236.906 273.252 238.569 272.147C240.232 271.042 241.604 269.501 242.555 267.67C243.505 265.839 244.003 263.779 244 261.685L243.841 207.085V52.0306C243.828 46.9931 241.953 42.1655 238.624 38.6006C235.295 35.0356 230.783 33.0224 226.072 33Z" fill="#E1DCEB"/>
<path fill-rule="evenodd" clip-rule="evenodd" d="M201.447 216.762L100.947 270.762L99.0533 267.238L199.553 213.238L201.447 216.762Z" fill="black"/>
<circle cx="162.5" cy="114.5" r="57.5" fill="black"/>
<path fill-rule="evenodd" clip-rule="evenodd" d="M162 68C144.37 68 129.214 78.6098 122.577 93.8007C122.135 94.8129 120.956 95.2749 119.944 94.8327C118.931 94.3905 118.469 93.2114 118.912 92.1993C126.162 75.6039 142.724 64 162 64C163.105 64 164 64.8954 164 66C164 67.1046 163.105 68 162 68Z" fill="white"/>
<path d="M165.482 81.9218L173.569 99.0614C173.809 99.5695 174.163 100.009 174.601 100.342C175.039 100.676 175.548 100.892 176.085 100.974L194.161 103.701C194.773 103.799 195.348 104.073 195.82 104.492C196.292 104.912 196.643 105.46 196.835 106.076C197.027 106.691 197.052 107.351 196.907 107.981C196.761 108.61 196.452 109.186 196.013 109.642L182.951 122.979C182.562 123.375 182.272 123.863 182.105 124.403C181.937 124.942 181.898 125.516 181.991 126.075L185.08 144.907C185.186 145.551 185.118 146.213 184.883 146.819C184.647 147.424 184.255 147.948 183.75 148.332C183.244 148.716 182.646 148.944 182.023 148.991C181.4 149.038 180.777 148.901 180.225 148.597L164.056 139.685C163.576 139.422 163.042 139.284 162.5 139.284C161.958 139.284 161.424 139.422 160.944 139.685L144.775 148.597C144.223 148.9 143.6 149.035 142.978 148.987C142.356 148.94 141.76 148.711 141.255 148.327C140.751 147.944 140.359 147.42 140.124 146.816C139.889 146.211 139.82 145.55 139.925 144.907L143.009 126.075C143.102 125.516 143.063 124.942 142.895 124.403C142.728 123.863 142.438 123.375 142.049 122.979L128.987 109.642C128.548 109.186 128.238 108.61 128.093 107.981C127.948 107.351 127.973 106.691 128.165 106.076C128.357 105.46 128.708 104.912 129.18 104.492C129.652 104.073 130.226 103.799 130.839 103.701L148.915 100.957C149.451 100.875 149.961 100.658 150.399 100.325C150.837 99.9913 151.191 99.5517 151.431 99.0435L159.518 81.904C159.8 81.3292 160.228 80.8472 160.755 80.5111C161.282 80.1751 161.888 79.9982 162.505 80C163.122 80.0019 163.727 80.1824 164.253 80.5216C164.778 80.8608 165.203 81.3454 165.482 81.9218Z" fill="url(#paint1_linear_63_3350)"/>
<g filter="url(#filter0_f_63_3350)">
<ellipse cx="162.14" cy="178.173" rx="52.1402" ry="11.1729" fill="#6B6B6B" fill-opacity="0.39"/>
</g>
<path fill-rule="evenodd" clip-rule="evenodd" d="M59.5634 238.933C56.4614 242.928 54.6124 247.281 52.456 251.773C52.035 252.65 52.4067 253.7 53.2835 254.122C54.1609 254.545 55.2149 254.173 55.6365 253.296C57.6812 249.037 59.4058 244.885 62.3514 241.09C62.9474 240.323 62.8065 239.215 62.0359 238.622C61.2682 238.024 60.1588 238.165 59.5634 238.933Z" fill="black"/>
<path fill-rule="evenodd" clip-rule="evenodd" d="M54.0271 226.057C43.476 229.56 32.4873 235.217 23.5902 241.906C22.8138 242.49 22.6589 243.595 23.246 244.369C23.8331 245.143 24.9385 245.301 25.715 244.717C34.3178 238.25 44.9454 232.779 55.1461 229.395C56.069 229.087 56.567 228.09 56.2577 227.17C55.9483 226.25 54.95 225.749 54.0271 226.057Z" fill="black"/>
<path fill-rule="evenodd" clip-rule="evenodd" d="M55.4489 217.736C49.0841 213.553 41.1488 212.333 33.6927 212.281C32.7186 212.278 31.9255 213.06 31.922 214.027C31.9167 214.999 32.7034 215.792 33.6752 215.801C40.4668 215.845 47.7175 216.863 53.5148 220.673C54.328 221.208 55.4219 220.982 55.9544 220.174C56.4875 219.365 56.2616 218.271 55.4489 217.736Z" fill="black"/>
<circle cx="267" cy="51" r="6" fill="#E3E3E3"/>
</g>
<defs>
<filter id="filter0_f_63_3350" x="89.3094" y="146.309" width="145.662" height="63.7268" filterUnits="userSpaceOnUse" color-interpolation-filters="sRGB">
<feFlood flood-opacity="0" result="BackgroundImageFix"/>
<feBlend mode="normal" in="SourceGraphic" in2="BackgroundImageFix" result="shape"/>
<feGaussianBlur stdDeviation="10.3453" result="effect1_foregroundBlur_63_3350"/>
</filter>
<linearGradient id="paint0_linear_63_3350" x1="161.594" y1="-11.2609" x2="164.001" y2="401.381" gradientUnits="userSpaceOnUse">
<stop stop-color="#F2F2F2"/>
<stop offset="1" stop-color="#EFEFEF"/>
</linearGradient>
<linearGradient id="paint1_linear_63_3350" x1="128" y1="79.8893" x2="197.497" y2="135.49" gradientUnits="userSpaceOnUse">
<stop stop-color="#E1DCEB"/>
<stop offset="1" stop-color="#B3AFBA"/>
</linearGradient>
<clipPath id="clip0_63_3350">
<rect width="300" height="300" fill="white"/>
</clipPath>
</defs>
</svg>
